<mxfile host="app.diagrams.net" modified="2024-04-17T07:24:45.632Z" agent="Mozilla/5.0 (Windows NT 10.0; Win64; x64) AppleWebKit/537.36 (KHTML, like Gecko) Chrome/123.0.0.0 Safari/537.36" version="24.2.5" etag="BXF4RbofyhZE506Oew16" type="github">
  <diagram name="第 1 页" id="uMn2lwZqYWW9F4s-D9Pt">
    <mxGraphModel>
      <root>
        <mxCell id="0" />
        <mxCell id="1" parent="0" />
      </root>
    </mxGraphModel>
  </diagram>
</mxfile>
